<svg width="50" height="48" viewBox="0 0 50 48" fill="none" xmlns="http://www.w3.org/2000/svg">
<path d="M24.7047 36.9041C19.971 36.9041 15.2374 36.9041 10.5037 36.9041C10.0236 36.9041 9.54353 36.8591 9.08592 36.7165C8.68082 36.589 8.32072 36.364 7.99814 36.1014C7.20295 35.4562 6.76034 34.6085 6.65531 33.5958C6.6178 33.2657 6.64782 32.9281 6.64032 32.598C6.64032 32.3655 6.64032 32.1329 6.64032 31.9004C6.64032 31.4728 6.95539 31.1427 7.3905 31.1352C7.8031 31.1352 8.2232 31.1352 8.6358 31.1352C8.74583 31.1352 8.80084 31.0827 8.80084 30.9777C8.80084 27.6618 8.80084 24.346 8.80084 21.0377C8.80084 18.8847 8.80084 16.7392 8.80084 14.5862C8.80084 13.1233 9.76858 11.743 11.1489 11.2404C11.5765 11.0828 12.0191 11.0078 12.4767 11.0078C20.5562 11.0078 28.6281 11.0078 36.7076 11.0078C37.5703 11.0078 38.358 11.2254 39.0482 11.7505C39.8884 12.3956 40.3385 13.2659 40.466 14.3086C40.481 14.4436 40.4735 14.5862 40.4735 14.7212C40.4735 20.13 40.4735 25.5463 40.4735 30.9551C40.4735 31.0752 40.536 31.1352 40.6611 31.1352C41.0437 31.1352 41.4337 31.1352 41.8163 31.1352C42.334 31.1352 42.6341 31.4428 42.6341 31.9529C42.6341 32.433 42.6416 32.9131 42.6341 33.3932C42.589 34.6535 42.0039 35.6063 40.9836 36.3189C40.5035 36.649 39.9784 36.8216 39.4083 36.8891C39.3257 36.8966 39.2432 36.8966 39.1607 36.8966C34.3445 36.8966 29.5284 36.8966 24.7122 36.8966L24.7047 36.9041ZM24.6222 12.4557C20.9988 12.4557 17.3829 12.4557 13.7595 12.4557C13.2644 12.4557 12.7618 12.4332 12.2667 12.4707C11.7491 12.5157 11.2989 12.7107 10.9163 13.0633C10.4287 13.5209 10.2487 14.1061 10.2412 14.7587C10.2412 20.16 10.2412 25.5688 10.2412 30.9702C10.2412 31.0802 10.2962 31.1352 10.4062 31.1352C11.7716 31.1352 13.1369 31.1352 14.5022 31.1352C16.1676 31.1352 17.8405 31.1352 19.5059 31.1352C19.9785 31.1352 20.2636 31.3903 20.3161 31.8479C20.3386 32.0504 20.4061 32.223 20.5562 32.3655C20.7362 32.5455 20.9688 32.568 21.2013 32.568C23.737 32.568 26.2801 32.568 28.8157 32.568C28.9507 32.568 29.0933 32.553 29.2208 32.493C29.4984 32.3655 29.6259 32.1254 29.6559 31.8329C29.6784 31.6603 29.7309 31.5103 29.8509 31.3752C30.0235 31.1877 30.241 31.1277 30.4886 31.1277C33.2643 31.1277 36.0324 31.1277 38.8081 31.1277C38.8456 31.1277 38.8831 31.1277 38.9206 31.1277C38.9807 31.1277 39.0107 31.1052 39.0107 31.0377C39.0107 31.0077 39.0107 30.9702 39.0107 30.9401C39.0107 25.9964 39.0107 21.0527 39.0107 16.109C39.0107 15.5539 39.0407 14.9988 38.9882 14.4511C38.9206 13.6935 38.553 13.1308 37.9004 12.7407C37.5178 12.5082 37.0902 12.4482 36.6551 12.4482C32.6416 12.4482 28.6281 12.4482 24.6147 12.4482L24.6222 12.4557ZM24.6522 35.4562C28.7557 35.4562 32.8517 35.4562 36.9552 35.4562C37.6828 35.4562 38.4105 35.4712 39.1382 35.4412C40.0384 35.3962 40.8636 34.7361 41.0962 33.8734C41.1937 33.4983 41.1787 33.1082 41.1862 32.7256C41.1862 32.6281 41.1562 32.598 41.0587 32.598C37.7429 32.598 34.4346 32.598 31.1188 32.598C31.0287 32.598 30.9837 32.6206 30.9537 32.7106C30.8412 33.0257 30.6386 33.2807 30.3911 33.4983C29.9635 33.8809 29.4458 34.0384 28.8832 34.0384C26.3026 34.0384 23.722 34.0384 21.1338 34.0384C20.9763 34.0384 20.8188 34.0384 20.6612 34.0009C19.911 33.8508 19.3859 33.4157 19.0633 32.7331C19.0108 32.6281 18.9583 32.598 18.8458 32.598C15.3199 32.598 11.7941 32.598 8.2682 32.598C8.24569 32.598 8.2157 32.598 8.1932 32.598C8.12568 32.598 8.09565 32.6206 8.10316 32.6881C8.11066 32.9506 8.08817 33.2132 8.11817 33.4758C8.2082 34.3085 8.64329 34.9011 9.39347 35.2612C9.74606 35.4337 10.1287 35.4562 10.5113 35.4562C15.2299 35.4562 19.9485 35.4562 24.6672 35.4562H24.6522Z" fill="#EC6750"/>
<path d="M24.637 13.881C28.658 13.881 32.679 13.881 36.7 13.881C36.775 13.881 36.8575 13.881 36.9325 13.8885C37.3301 13.941 37.5927 14.2411 37.5927 14.6462C37.5927 15.3813 37.5927 16.1165 37.5927 16.8517C37.5927 21.1202 37.5927 25.3813 37.5927 29.6498C37.5927 30.0024 37.4126 30.2724 37.1126 30.3925C36.6625 30.565 36.1748 30.2349 36.1373 29.7323C36.1373 29.6573 36.1373 29.5748 36.1373 29.4998C36.1373 24.8411 36.1373 20.19 36.1373 15.5314C36.1373 15.4063 36.0748 15.3438 35.9498 15.3438C28.4105 15.3438 20.8636 15.3438 13.3243 15.3438C13.0917 15.3438 13.1142 15.3213 13.1142 15.5464C13.1142 20.2425 13.1142 24.9312 13.1142 29.6273C13.1142 29.9199 13.0167 30.1674 12.7691 30.325C12.2965 30.625 11.7039 30.31 11.6664 29.7398C11.6664 29.6873 11.6664 29.6348 11.6664 29.5823C11.6664 24.6311 11.6664 19.6874 11.6664 14.7362C11.6664 14.181 11.959 13.8885 12.5141 13.8885C16.5501 13.8885 20.5861 13.8885 24.622 13.8885L24.637 13.881Z" fill="#EC6750"/>
<path d="M20.3162 24.3085C20.3162 23.5284 20.4737 22.7782 20.9163 22.118C21.3739 21.4278 22.0266 21.0378 22.8518 20.9327C23.3244 20.8727 23.7745 20.9852 24.2321 21.0753C24.2846 21.0828 24.3446 21.0978 24.3972 21.1128C24.7347 21.2328 25.0573 21.1953 25.3949 21.0828C25.71 20.9777 26.0401 20.9102 26.3776 20.9177C26.7452 20.9177 27.0903 21.0378 27.4279 21.1803C27.893 21.3828 28.2606 21.7054 28.5982 22.073C28.8157 22.3131 28.7857 22.7332 28.5457 23.0032C28.4181 23.1458 28.2906 23.2808 28.1706 23.4233C27.9905 23.6334 27.893 23.8809 27.833 24.1435C27.803 24.286 27.833 24.4286 27.878 24.5636C27.9305 24.7437 28.028 24.9087 28.1256 25.0662C28.1856 25.1638 28.2681 25.2088 28.3806 25.2238C28.8232 25.2838 29.0633 25.5163 29.1158 25.9139C29.1383 26.0715 29.0858 26.2215 29.0258 26.364C28.8607 26.7616 28.6507 27.1367 28.4331 27.5118C28.2306 27.8644 27.968 28.1645 27.668 28.427C27.1053 28.9222 26.4527 29.0947 25.7175 28.8997C25.4699 28.8321 25.2299 28.7571 24.9748 28.7196C24.7948 28.6971 24.6297 28.7196 24.4572 28.7721C24.0446 28.8997 23.6245 29.0122 23.1894 28.9447C22.7843 28.8847 22.4392 28.7121 22.1391 28.427C21.704 28.0219 21.3889 27.5343 21.1039 27.0242C20.6838 26.2815 20.4287 25.4938 20.3387 24.6461C20.3237 24.5261 20.3387 24.4061 20.3387 24.286L20.3162 24.3085ZM21.779 24.3085C21.779 24.6386 21.8165 24.9612 21.9066 25.2763C22.0866 25.9214 22.4167 26.4916 22.8068 27.0242C22.9193 27.1817 23.0543 27.3243 23.2119 27.4443C23.3094 27.5118 23.4069 27.5493 23.527 27.5193C23.722 27.4743 23.9095 27.4293 24.1046 27.3618C24.3296 27.2868 24.5622 27.2418 24.8023 27.2493C25.2149 27.2493 25.62 27.3468 26.0175 27.4668C26.2576 27.5418 26.4602 27.5268 26.6627 27.3468C26.9478 27.0842 27.1728 26.7766 27.3754 26.4541C27.4054 26.4016 27.3979 26.364 27.3529 26.3265C27.2929 26.2815 27.2329 26.229 27.1728 26.1765C26.9103 25.9289 26.7602 25.6214 26.6177 25.2988C26.4152 24.8487 26.3251 24.3761 26.4077 23.8884C26.4827 23.4458 26.6627 23.0482 26.9103 22.6731C26.9478 22.6206 26.9778 22.5756 26.8953 22.5306C26.6627 22.4106 26.4152 22.3506 26.1526 22.4031C25.9876 22.4331 25.8225 22.4706 25.6575 22.5156C25.2299 22.6506 24.7948 22.7107 24.3521 22.6056C24.0371 22.5306 23.7145 22.4706 23.3994 22.4031C22.8068 22.2906 22.3192 22.5381 22.0566 23.0707C21.8615 23.4608 21.7865 23.8734 21.794 24.301L21.779 24.3085Z" fill="#EC6750"/>
<path d="M23.842 20.0175C23.857 19.6274 23.947 19.2523 24.1046 18.8922C24.4947 17.9995 25.2148 17.5269 26.1226 17.2943C26.5727 17.1743 27.0003 17.5044 27.0228 17.977C27.0603 18.7347 26.8502 19.4173 26.3176 19.9875C26.1676 20.145 26.055 20.3401 25.875 20.4751C25.4849 20.7827 25.0423 20.9252 24.5472 20.8802C24.1421 20.8502 23.8495 20.5276 23.8495 20.1225C23.8495 20.0925 23.8495 20.055 23.8495 20.025L23.842 20.0175Z" fill="#EC6750"/>
</svg>
