<svg width="125" height="23" viewBox="0 0 125 23" fill="none" xmlns="http://www.w3.org/2000/svg">
<g clip-path="url(#clip0_593_3004)">
<path d="M38.3938 17.5566C38.3938 18.9182 38.3938 20.2798 38.3938 21.6361C38.3938 22.1092 38.3567 22.146 37.8909 22.146C36.9965 22.146 36.102 22.146 35.2075 22.146C34.7523 22.146 34.6729 22.0777 34.6729 21.6414C34.6729 18.9077 34.6571 16.1792 34.6835 13.4455C34.6941 12.4046 35.0011 11.411 35.4245 10.4648C36.4513 8.17266 38.1609 6.56924 40.532 5.74913C41.8182 5.30228 43.1731 5.13931 44.5651 5.37062C45.5019 5.52308 46.3964 5.75439 47.2327 6.18021C48.2436 6.69015 49.1328 7.37358 49.9002 8.2042C50.1649 8.48809 50.2337 8.50386 50.5036 8.22523C51.1864 7.53129 51.8744 6.85312 52.7424 6.3905C53.7004 5.88582 54.6743 5.43371 55.7911 5.40216C56.0187 5.39691 56.2463 5.31279 56.4791 5.29702C57.7864 5.20239 59.0302 5.44422 60.2529 5.91736C61.7613 6.50616 62.9681 7.47346 63.9366 8.72465C64.757 9.78133 65.2863 10.9905 65.5456 12.3258C65.6727 12.9934 65.6991 13.6506 65.7044 14.3182C65.7044 16.4789 65.7044 18.6396 65.7044 20.8002C65.7044 21.0736 65.7044 21.347 65.7415 21.6203C65.7944 22.0094 65.6621 22.146 65.2704 22.1513C64.3336 22.1513 63.3915 22.1513 62.4547 22.1513C62.0365 22.1513 61.9783 22.0935 61.9783 21.6729C61.9783 19.1495 61.9836 16.6261 61.9836 14.1027C61.9836 12.7989 61.6184 11.6108 60.7663 10.6067C60.327 10.0862 59.7448 9.72351 59.1414 9.42911C58.0458 8.89814 56.8602 8.8298 55.7117 9.12945C54.2244 9.51848 53.1023 10.4122 52.4725 11.8631C52.1814 12.5361 52.0967 13.2353 52.0491 13.9397C52.0015 14.6704 52.0967 15.4064 51.9591 16.1372C51.7315 17.3358 51.3293 18.4556 50.6518 19.4807C50.0273 20.427 49.2175 21.1998 48.3336 21.8937C48.2065 21.9936 48.0531 22.0567 47.8996 21.9673C47.7514 21.8779 47.8572 21.7307 47.8572 21.6046C47.8572 20.4953 47.8731 19.3913 47.8678 18.2821C47.8625 17.5251 47.9419 16.7996 48.1642 16.0531C48.4183 15.2067 48.3494 14.2972 48.2912 13.4087C48.2012 12.0051 47.5344 10.9011 46.4864 10.0284C45.756 9.41859 44.8827 9.07162 43.9194 8.99802C42.2945 8.8666 40.8708 9.30819 39.7487 10.5016C38.8966 11.411 38.4096 12.5045 38.4043 13.7715C38.3937 15.0332 38.4043 16.2949 38.4043 17.5566H38.3938Z" fill="#141414"/>
<path d="M86.034 12.0048C87.8229 12.0048 89.6119 12.0048 91.4008 12.0048C92.6341 12.0048 93.5762 13.051 93.5232 14.2339C93.4544 15.8005 92.9569 17.2514 92.0942 18.5552C91.2209 19.88 90.0671 20.9156 88.6221 21.6148C87.3783 22.2194 86.0816 22.5559 84.679 22.5401C81.9533 22.5085 79.2222 22.5296 76.4964 22.5296C75.8772 22.5296 75.8772 22.5085 75.8824 21.9092C75.893 21.0418 75.8824 20.1744 75.8824 19.3122C75.8824 18.8128 75.9089 18.7865 76.4011 18.7865C79.3069 18.7865 82.2073 18.7865 85.113 18.7865C86.0869 18.7865 86.9496 18.4606 87.7224 17.8928C88.3628 17.4249 88.8656 16.8309 89.2361 16.1317C89.2996 16.016 89.3843 15.8898 89.2943 15.7637C89.2096 15.648 89.072 15.7058 88.9556 15.7164C88.8021 15.7269 88.6486 15.7479 88.4951 15.7479C84.4991 15.7479 80.503 15.7479 76.5017 15.7479C76.0148 15.7479 75.9565 15.6848 75.9565 15.1907C75.9565 14.1182 75.9301 13.0458 76.2 11.9891C76.5705 10.5276 77.2374 9.22909 78.2536 8.10407C79.4551 6.77402 80.9476 5.91711 82.6784 5.48077C83.3241 5.3178 84.0068 5.24421 84.6737 5.22843C86.3198 5.19163 87.9658 5.21266 89.6066 5.20215C89.8501 5.20215 89.993 5.30729 89.9983 5.54386C90.0088 6.58477 90.0036 7.62567 90.0036 8.67184C90.0036 8.97149 89.7813 9.03458 89.5484 9.01881C87.8917 8.92944 86.2351 8.98201 84.5838 8.98727C82.5831 8.98727 81.1699 9.98086 80.2172 11.6842C80.0902 11.9155 80.1537 11.9996 80.4607 11.9996C81.7733 11.9996 83.0912 12.0048 84.4038 12.0048C84.9437 12.0048 85.4835 12.0048 86.0287 12.0048H86.034Z" fill="#141414"/>
<path d="M105.834 18.7866C106.628 18.7866 107.422 18.7866 108.221 18.7866C108.687 18.7866 108.766 18.8707 108.766 19.3176C108.766 20.1745 108.766 21.0314 108.766 21.883C108.766 22.4771 108.719 22.5297 108.105 22.5297C106.924 22.5297 105.739 22.5297 104.559 22.5297C103.918 22.5297 103.267 22.577 102.643 22.4403C101.478 22.1827 100.351 21.8147 99.3453 21.1313C98.0432 20.2481 96.9953 19.1388 96.2807 17.7404C95.4551 16.1212 95.1851 14.4022 95.4604 12.6042C95.8573 10.023 97.207 8.04107 99.377 6.62691C100.404 5.95926 101.542 5.55972 102.791 5.37572C103.834 5.22326 104.834 5.28635 105.839 5.44932C106.422 5.54394 106.988 5.77 107.528 6.01183C108.571 6.47971 109.502 7.12108 110.296 7.9517C111.254 8.95581 111.947 10.1176 112.365 11.4319C112.784 12.7409 112.752 14.092 112.725 15.4378C112.72 15.748 112.572 15.8531 112.27 15.7953C112.048 15.7532 111.831 15.748 111.609 15.748C107.877 15.748 104.141 15.748 100.409 15.748C100.176 15.748 99.9486 15.7164 99.7157 15.7007C99.504 15.6849 99.4299 15.7532 99.5146 15.974C100.139 17.5249 101.96 18.7708 103.632 18.7866C104.363 18.7919 105.088 18.7866 105.818 18.7866H105.834ZM104.029 12.0049C105.411 12.0049 106.792 12.0049 108.174 12.0049C108.544 12.0049 108.586 11.9313 108.428 11.6001C107.427 9.54986 105.098 8.58255 102.833 9.11352C101.404 9.44472 100.324 10.3121 99.6258 11.6159C99.4458 11.9471 99.4776 12.0102 99.8587 12.0102C101.251 12.0102 102.643 12.0102 104.035 12.0102L104.029 12.0049Z" fill="#141414"/>
<path d="M31.439 13.9136C31.4761 18.687 27.4059 22.4669 22.8647 22.5457C18.0218 22.6298 13.9676 18.6029 13.9782 13.9136C13.9888 9.04547 18.0007 5.2183 22.7695 5.26035C27.6706 5.30241 31.4337 9.13484 31.4443 13.9136H31.439ZM22.653 18.8027C23.4787 18.8237 24.2567 18.687 24.9977 18.319C27.6547 16.9837 28.4221 13.903 27.1201 11.4848C26.2733 9.91289 24.8866 9.1033 23.0976 8.9929C21.875 8.9193 20.7106 9.15061 19.7208 9.89712C18.8211 10.5753 18.1542 11.4322 17.8736 12.552C17.5931 13.6822 17.5984 14.8073 18.0801 15.8692C18.964 17.8038 20.52 18.7606 22.6477 18.8027H22.653Z" fill="#141414"/>
<path d="M3.80015 5.15525C3.80015 6.41696 3.81073 7.67866 3.80015 8.94037C3.80015 9.37671 3.92188 9.81305 3.81073 10.2494C3.78956 10.323 3.80015 10.4071 3.88483 10.4492C4.00127 10.507 4.09654 10.4334 4.19181 10.3808C4.95926 9.91293 5.56793 9.28208 5.99664 8.49877C6.29304 7.95203 6.46241 7.36323 6.52063 6.74815C6.54709 6.44324 6.70058 6.29078 7.00756 6.28553C7.97085 6.28553 8.92884 6.28553 9.89212 6.28027C10.2467 6.28027 10.2838 6.52735 10.2785 6.77444C10.2573 7.48941 10.088 8.17809 9.83919 8.851C9.60631 9.48711 9.37343 10.118 8.98176 10.691C8.14021 11.9317 7.11871 12.9621 5.8114 13.7086C5.72142 13.7611 5.56793 13.7769 5.59439 13.9188C5.62086 14.0503 5.76376 14.0345 5.86432 14.066C7.46274 14.5812 8.81769 15.4644 9.94505 16.7104C10.8819 17.746 11.4694 18.9604 11.8399 20.2799C11.9722 20.7583 12.0674 21.2578 12.131 21.7625C12.1627 22.0306 12.0251 22.1988 11.7605 22.2041C10.7337 22.2146 9.70687 22.2146 8.68008 22.2041C8.44719 22.2041 8.32546 22.0726 8.28841 21.8413C8.21431 21.3787 8.20373 20.9108 8.00789 20.4639C7.59506 19.4914 6.95993 18.7186 6.05486 18.1666C5.46207 17.8039 4.83223 17.5673 4.13359 17.5042C3.89012 17.4832 3.73663 17.5357 3.7578 17.8091C3.84249 18.9026 3.7578 20.0013 3.80544 21.0948C3.81602 21.3261 3.8372 21.5522 3.85307 21.7835C3.87424 22.0516 3.7631 22.2093 3.48258 22.2093C2.45578 22.2093 1.42899 22.2093 0.40219 22.2093C0.126966 22.2093 0.0105251 22.0779 0.0105251 21.7993C0.0158179 19.8489 -0.0159387 17.8932 0.0264034 15.9428C0.137552 11.0485 0.0422817 6.15936 0.0687456 1.27025C0.0740383 0.481681 0.05816 0.507967 0.857368 0.528995C1.6407 0.550024 2.42403 0.586823 3.20736 0.497452C3.67312 0.444881 3.80015 0.571052 3.80544 1.03893C3.80544 2.41104 3.80544 3.78314 3.80544 5.14999L3.80015 5.15525Z" fill="#141414"/>
<path d="M115.864 17.4355C115.864 16.1843 115.859 14.9331 115.864 13.6872C115.875 11.5581 116.568 9.66552 117.928 8.0253C118.96 6.77936 120.268 5.92771 121.797 5.37572C122.512 5.11812 123.263 5.0708 123.983 4.86578C124.253 4.78692 124.364 4.9972 124.391 5.22326C124.417 5.47034 124.406 5.72794 124.406 5.98028C124.406 6.72679 124.406 7.4733 124.406 8.21981C124.406 8.59307 124.322 8.70347 123.946 8.70872C121.686 8.74552 119.579 11.106 119.617 13.4559C119.659 16.1843 119.627 18.918 119.627 21.6465C119.627 22.1932 119.601 22.2142 119.045 22.2142C118.15 22.2142 117.256 22.2142 116.361 22.2142C115.933 22.2142 115.859 22.1406 115.859 21.7148C115.859 20.2901 115.859 18.8655 115.859 17.4355H115.864Z" fill="#141414"/>
<path d="M72.6591 15.401C72.6591 17.4934 72.6591 19.5909 72.6591 21.6833C72.6591 22.1827 72.6327 22.2037 72.1351 22.2037C71.2513 22.2037 70.3674 22.2037 69.4835 22.2037C69.0071 22.2037 68.9277 22.1196 68.9277 21.6412C68.9277 17.4303 68.9277 13.2193 68.9277 9.00838C68.9277 8.59833 69.0177 8.55101 69.42 8.55627C70.3144 8.5773 71.2089 8.58256 72.1034 8.56153C72.5956 8.55101 72.6538 8.5773 72.6538 9.08198C72.6538 11.1848 72.6538 13.2929 72.6538 15.3958L72.6591 15.401Z" fill="#141414"/>
<path d="M72.6485 3.77225C72.6485 4.28744 72.6485 4.80264 72.6485 5.31784C72.6485 5.58595 72.5321 5.69109 72.2675 5.68583C71.2883 5.68058 70.3039 5.68058 69.3247 5.68583C69.0442 5.68583 68.9277 5.57018 68.9277 5.29155C68.933 4.27167 68.9383 3.25179 68.9277 2.23717C68.9277 1.95854 69.0495 1.84814 69.33 1.84814C70.3092 1.8534 71.2936 1.8534 72.2728 1.84814C72.548 1.84814 72.6485 1.96906 72.6485 2.22666C72.6485 2.74185 72.6485 3.25705 72.6485 3.77225Z" fill="#141414"/>
<path d="M20.8958 13.882C20.8958 13.4457 20.8958 13.0041 20.8958 12.5678C20.8958 12.1209 20.9488 12.0788 21.3881 12.0683C22.3249 12.0526 23.2617 12.1051 24.1985 12.0315C24.5002 12.0052 24.5373 12.2155 24.5426 12.4416C24.5426 13.1092 24.5426 13.7769 24.5426 14.4498C24.5426 14.7127 24.5426 14.9755 24.5743 15.2384C24.6167 15.559 24.5002 15.6957 24.1774 15.6957C23.2194 15.6957 22.2561 15.6957 21.2981 15.6957C21.0017 15.6957 20.8853 15.5485 20.8906 15.2646C20.8958 14.802 20.8906 14.3447 20.8906 13.882H20.8958Z" fill="#13ACAC"/>
</g>
<defs>
<clipPath id="clip0_593_3004">
<rect width="124.412" height="22.0588" fill="white" transform="translate(0 0.486572)"/>
</clipPath>
</defs>
</svg>
