<svg width="40" height="41" viewBox="0 0 40 41" fill="none" xmlns="http://www.w3.org/2000/svg">
<rect y="0.787109" width="40" height="40" rx="20" fill="#EC6750"/>
<path d="M20 10.7871C16.13 10.7871 13 13.9171 13 17.7871C13 21.9571 17.42 27.7071 19.24 29.8971C19.64 30.3771 20.37 30.3771 20.77 29.8971C22.58 27.7071 27 21.9571 27 17.7871C27 13.9171 23.87 10.7871 20 10.7871ZM20 20.2871C18.62 20.2871 17.5 19.1671 17.5 17.7871C17.5 16.4071 18.62 15.2871 20 15.2871C21.38 15.2871 22.5 16.4071 22.5 17.7871C22.5 19.1671 21.38 20.2871 20 20.2871Z" fill="white"/>
</svg>
