<svg xmlns="http://www.w3.org/2000/svg" xmlns:xlink="http://www.w3.org/1999/xlink" width="300" height="141.26" viewBox="0 0 300 141.26"><defs><style>.cls-1{fill:#3b7ded;}.cls-2{fill:#00a4c1;}.cls-3{fill:#0050b3;}.cls-4{fill:#324068;}.cls-5{fill:url(#linear-gradient);}</style><linearGradient id="linear-gradient" x1="73.75" y1="29.18" x2="161.41" y2="29.18" gradientUnits="userSpaceOnUse"><stop offset="0" stop-color="#3b7ded"/><stop offset="1" stop-color="#00a4c1"/></linearGradient></defs><g id="Layer_2" data-name="Layer 2"><g id="Layer_1-2" data-name="Layer 1"><path class="cls-1" d="M84,55.66a21.4,21.4,0,0,1,0,30.49,21.05,21.05,0,0,1-15.4,6.33,21.05,21.05,0,0,1-15.4-6.33,21.4,21.4,0,0,1,0-30.49,21.08,21.08,0,0,1,15.4-6.32A21.08,21.08,0,0,1,84,55.66Z"/><path class="cls-2" d="M105.79,55.66a21.4,21.4,0,0,1,0,30.49,21.91,21.91,0,0,1-30.81,0,21.4,21.4,0,0,1,0-30.49,21.93,21.93,0,0,1,30.81,0Z"/><path class="cls-3" d="M84,55.66a22.22,22.22,0,0,0-4.51-3.46A22.49,22.49,0,0,0,75,55.66a21.4,21.4,0,0,0,0,30.49,22.93,22.93,0,0,0,4.51,3.47A22.64,22.64,0,0,0,84,86.15a21.4,21.4,0,0,0,0-30.49Z"/><path class="cls-2" d="M183.12,8.64a.71.71,0,0,1,.5-.21l3.49,0a.7.7,0,0,1,0,1.4l-3.49,0a.7.7,0,0,1-.5-1.19Z"/><path class="cls-2" d="M165.06,14.48a.71.71,0,0,1,.49-.21L187.83,14a.7.7,0,0,1,0,1.4l-22.28.28a.7.7,0,0,1-.51-1.19Z"/><path class="cls-2" d="M163.56,9.06a.67.67,0,0,1,.48-.21l17.47-.41a.7.7,0,0,1,0,1.4l-17.47.4a.7.7,0,0,1-.72-.68A.67.67,0,0,1,163.56,9.06Z"/><path class="cls-2" d="M172,11.48a.7.7,0,0,1,.49-.2l6,0a.7.7,0,0,1,0,1.39l-6,0a.69.69,0,0,1-.7-.69A.7.7,0,0,1,172,11.48Z"/><path class="cls-2" d="M168,11.5a.7.7,0,0,1,.49-.2h1a.7.7,0,0,1,0,1.4h-1a.69.69,0,0,1-.7-.69A.7.7,0,0,1,168,11.5Z"/><path class="cls-2" d="M223.14,12.34a.73.73,0,0,0,.23-1,.84.84,0,0,0-.23-.23l-8.73-4.6L214.46,17Z"/><path class="cls-2" d="M183.72.48a.52.52,0,0,0-.05.27.72.72,0,0,0,.2.5l4.21,4.16a2.06,2.06,0,0,1,1.4-1.14,52.77,52.77,0,0,1,9.83-1.45L195.22.12a.69.69,0,0,0-.39-.12L184.36.05A.7.7,0,0,0,183.72.48Z"/><path class="cls-2" d="M188.14,18.38,184,22.59a.74.74,0,0,0-.2.5.66.66,0,0,0,.06.27.7.7,0,0,0,.65.43L195,23.73a.66.66,0,0,0,.38-.12l4.06-2.72a48.3,48.3,0,0,1-9.87-1.38A2.17,2.17,0,0,1,188.14,18.38Z"/><circle class="cls-2" cx="204.66" cy="11.82" r="2.79"/><path class="cls-2" d="M197,11.85a.7.7,0,0,1-.69.71l-7,0,0,4.89a.69.69,0,0,0,.53.67,46.14,46.14,0,0,0,11.35,1.36A45.7,45.7,0,0,0,212.55,18a.71.71,0,0,0,.52-.68L213,6.19a.68.68,0,0,0-.54-.67,47,47,0,0,0-11.33-1.36,49.23,49.23,0,0,0-11.33,1.47.69.69,0,0,0-.53.68l0,4.88,7,0a.69.69,0,0,1,.7.69Zm7.66-4.22a4.19,4.19,0,1,1-4.17,4.21h0A4.2,4.2,0,0,1,204.64,7.63Z"/><path class="cls-2" d="M182.28,12.62l6,0V11.2l-6,0a.7.7,0,0,0,0,1.39Z"/><path class="cls-4" d="M12.25,16.81V42.68H9.67V16.81H0V14.23H21.92v2.58Z"/><path class="cls-4" d="M44.13,42.68V29.74H27.34V42.68H24.76V14.23h2.58V27.17H44.13V14.23h2.58V42.68Z"/><path class="cls-4" d="M72,40.1v2.58H51.26V14.23H72v2.58H53.84V27.17H69.35v2.57H53.84V40.1Z"/><path class="cls-4" d="M41.58,91.53H37.52V56.11h-.24L22.56,74H19L4.3,56.11H4.06V91.53H0V50.28H4.51L20.79,70,37.07,50.28h4.51Z"/><path class="cls-4" d="M149.23,50.28V91.53h-4.08L121.49,57l-.06.06V91.53h-4.05V50.28h4.05L145.1,84.82l.05,0V50.28Z"/><path class="cls-4" d="M154.71,80.47h4.06a7.41,7.41,0,0,0,2.65,6.15q2.64,2.11,7.53,2.12a11.82,11.82,0,0,0,7.4-2.07,7.35,7.35,0,0,0,2.67-6.2,7.64,7.64,0,0,0-1.29-4.58,7.32,7.32,0,0,0-3.35-2.59A26.14,26.14,0,0,0,169.81,72c-1.67-.33-3.33-.7-5-1.13a24.46,24.46,0,0,1-4.56-1.65A7.81,7.81,0,0,1,156.89,66a11,11,0,0,1-1.29-5.59,9.89,9.89,0,0,1,3.65-8.08q3.66-3,9.7-3t9.71,2.94a10,10,0,0,1,3.56,8.12h-4A6.48,6.48,0,0,0,175.83,55,11,11,0,0,0,169,53.07,10.69,10.69,0,0,0,162.18,55a6.51,6.51,0,0,0-2.42,5.42,6.39,6.39,0,0,0,1.31,4.18,7.19,7.19,0,0,0,3.35,2.31A31,31,0,0,0,169,68.07c1.67.32,3.34.69,5,1.13A20,20,0,0,1,178.57,71a8.4,8.4,0,0,1,3.35,3.52,12.43,12.43,0,0,1,1.29,6,10.74,10.74,0,0,1-3.91,8.84q-3.9,3.16-10.35,3.17t-10.39-3.23A10.83,10.83,0,0,1,154.71,80.47Z"/><path class="cls-4" d="M220.55,91.53h-4.08V72.79H192.75V91.53h-4.06V50.28h4.06V69h23.72V50.28h4.08Z"/><path class="cls-4" d="M263,55.66a21.4,21.4,0,0,1,0,30.49,21.91,21.91,0,0,1-30.81,0,21.4,21.4,0,0,1,0-30.49,21.93,21.93,0,0,1,30.81,0ZM260,83.5a18,18,0,0,0,0-25.19,17.43,17.43,0,0,0-24.92,0,18,18,0,0,0,0,25.19,17.43,17.43,0,0,0,24.92,0Z"/><path class="cls-4" d="M300,54.06H286.14V91.53h-4.06V54.06H268.22V50.28H300Z"/><path class="cls-4" d="M3.73,102.88v15H25.26v3.73H3.73v18.73H0V99.14H29v3.74Z"/><path class="cls-4" d="M58.21,140.33l-3.63-9.39H34.32l-3.63,9.39h-4L42.61,99.14h3.73l15.93,41.19Zm-5.06-13.07-8.62-22.57h-.11L35.8,127.26Z"/><path class="cls-4" d="M101.64,125.83h4a21.53,21.53,0,1,1,0-12.19h-4a17.91,17.91,0,1,0,0,12.19Z"/><path class="cls-4" d="M123.93,102.88v37.45H120.2V102.88h-14V99.14h31.74v3.74Z"/><path class="cls-4" d="M158.36,141.26a21.53,21.53,0,1,1,21.52-21.52A21.52,21.52,0,0,1,158.36,141.26Zm0-39.42A17.9,17.9,0,1,0,176,119.74,17.78,17.78,0,0,0,158.36,101.84Z"/><path class="cls-4" d="M207.45,124.57l7.85,15.76h-4.12l-7.58-14.94H188.83v14.94H185.1V99.14h17.84a13.12,13.12,0,0,1,4.51,25.43Zm-4.51-21.69H188.83v18.78h14.11a9.39,9.39,0,0,0,0-18.78Z"/><path class="cls-4" d="M252.53,99.14l-15.71,22v19.22h-3.73V121.11l-15.71-22H222L235,117.32l13-18.18Z"/><path class="cls-5" d="M136.39,9.39a102.82,102.82,0,0,0-23.7,8.44A84.76,84.76,0,0,0,92.25,32.2,75.35,75.35,0,0,0,77.76,51.29c.58.27,1.15.57,1.7.89A72.38,72.38,0,0,1,95,35.34a79.52,79.52,0,0,1,20.37-11.61c14.58-5.73,30.42-7.31,45.92-6.46l.14-11.1A136.66,136.66,0,0,0,136.39,9.39Z"/></g></g></svg>